<svg xmlns="http://www.w3.org/2000/svg" viewBox="0 0 1600 900" preserveAspectRatio="xMidYMid slice">
  <defs>
    <linearGradient id="dream" x1="0" y1="0" x2="0" y2="1">
      <stop offset="0%" stop-color="#ffe3b8"/>
      <stop offset="55%" stop-color="#ffcad4"/>
      <stop offset="100%" stop-color="#fcefff"/>
    </linearGradient>
  </defs>
  <rect width="1600" height="900" fill="url(#dream)"/>
  <g fill="#fff6d4" opacity="0.48">
    <circle cx="280" cy="230" r="28"/>
    <circle cx="340" cy="230" r="28"/>
    <circle cx="310" cy="185" r="30"/>
    <circle cx="1260" cy="180" r="22"/>
    <circle cx="1310" cy="180" r="22"/>
    <circle cx="1285" cy="143" r="24"/>
  </g>
  <g stroke="#ffd17f" stroke-width="3" opacity="0.45" stroke-linecap="round">
    <path d="M460 310 l15 28 l32 4 l-24 21 l6 30 l-29 -15 l-29 15 l6 -30 l-24 -21 l32 -4z" fill="#ffe8a8"/>
    <path d="M1080 280 l12 24 l28 4 l-20 18 l5 26 l-25 -13 l-25 13 l5 -26 l-20 -18 l28 -4z" fill="#ffe8a8"/>
  </g>
</svg>
